<?xml version="1.0" standalone="no"?>
<!DOCTYPE svg PUBLIC "-//W3C//DTD SVG 20010904//EN"
 "http://www.w3.org/TR/2001/REC-SVG-20010904/DTD/svg10.dtd">
<svg version="1.0" xmlns="http://www.w3.org/2000/svg"
 width="100.000000pt" height="100.000000pt" viewBox="0 0 100.000000 100.000000"
 preserveAspectRatio="xMidYMid meet">

<g transform="translate(0.000000,100.000000) scale(0.100000,-0.100000)"
fill="#000000" stroke="none">
<path d="M0 500 l0 -500 500 0 500 0 0 500 0 500 -500 0 -500 0 0 -500z m195
40 c39 -32 3 -88 -62 -97 l-38 -5 0 62 0 62 42 -5 c24 -2 50 -10 58 -17z m80
-27 c0 -45 2 -48 25 -48 23 0 25 3 25 48 0 27 5 47 11 47 15 0 1 -100 -17
-111 -41 -25 -75 1 -83 64 -5 44 -4 47 17 47 20 0 22 -5 22 -47z m180 33 c16
-11 17 -17 7 -29 -10 -12 -10 -16 3 -21 42 -16 -3 -56 -63 -56 -26 0 -27 2
-27 60 l0 60 31 0 c16 0 39 -6 49 -14z m130 -49 l24 -57 -24 0 c-16 0 -22 5
-21 18 1 12 -6 17 -24 17 -18 0 -25 -5 -24 -17 1 -10 -4 -18 -12 -18 -10 0 -8
14 11 56 14 31 25 59 25 61 0 3 5 3 11 1 6 -2 22 -29 34 -61z m133 38 c2 -18
2 -18 -8 -2 -27 42 -69 -7 -50 -58 10 -27 29 -32 48 -13 9 9 12 9 12 1 0 -17
-34 -25 -63 -14 -45 17 -48 78 -4 99 32 16 61 10 65 -13z m120 0 c2 -18 2 -18
-8 -2 -16 24 -39 21 -52 -8 -22 -48 25 -102 51 -57 10 16 10 16 11 0 0 -26
-45 -34 -75 -14 -31 20 -33 58 -4 87 26 26 73 23 77 -6z m67 -35 c0 -53 -2
-60 -20 -60 -18 0 -20 7 -20 60 0 53 2 60 20 60 18 0 20 -7 20 -60z"/>
<path d="M130 500 c0 -27 4 -50 9 -50 16 0 41 31 41 50 0 19 -25 50 -41 50 -5
0 -9 -22 -9 -50z"/>
<path d="M410 530 c0 -13 5 -20 13 -17 6 2 12 10 12 17 0 7 -6 15 -12 18 -8 2
-13 -5 -13 -18z"/>
<path d="M410 481 c0 -11 4 -22 9 -25 12 -8 34 21 26 34 -11 17 -35 11 -35 -9z"/>
<path d="M530 506 c0 -9 5 -16 10 -16 6 0 10 4 10 9 0 6 -4 13 -10 16 -5 3
-10 -1 -10 -9z"/>
</g>
</svg>
